<svg width="20" height="17" viewBox="0 0 20 17" fill="none" xmlns="http://www.w3.org/2000/svg">
<path d="M10.3144 14.0692H2.76609C2.53416 14.0692 2.30451 14.0235 2.09024 13.9348C1.87597 13.846 1.68127 13.7159 1.51728 13.5519C1.18607 13.2207 1 12.7715 1 12.3031V2.76621C1 2.29782 1.18607 1.8486 1.51728 1.5174C1.84848 1.18619 2.29769 1.00012 2.76609 1.00012H14.5706C14.8026 1.00012 15.0322 1.0458 15.2465 1.13456C15.4608 1.22331 15.6555 1.3534 15.8195 1.5174C15.9835 1.68139 16.1135 1.87609 16.2023 2.09036C16.2911 2.30463 16.3367 2.53429 16.3367 2.76621V7.90554" stroke="#AFB0B3" stroke-miterlimit="10"/>
<path d="M15.4025 16.2998C17.3893 16.2998 19 14.6891 19 12.7023C19 10.7154 17.3893 9.10474 15.4025 9.10474C13.4156 9.10474 11.8049 10.7154 11.8049 12.7023C11.8049 14.6891 13.4156 16.2998 15.4025 16.2998Z" stroke="#AFB0B3" stroke-miterlimit="10"/>
<path d="M1 4.30627H16.335" stroke="#AFB0B3" stroke-miterlimit="10"/>
<path d="M15.3124 10.5845V12.8716H17.4423" stroke="#AFB0B3" stroke-miterlimit="10"/>
<path d="M3.0946 6.70294H14.4965" stroke="#AFB0B3" stroke-miterlimit="10"/>
<path d="M3.0946 9.10645H9.84284" stroke="#AFB0B3" stroke-miterlimit="10"/>
<path d="M3.0946 11.5082H9.84284" stroke="#AFB0B3" stroke-miterlimit="10"/>
</svg>
