<svg width="19" height="12" viewBox="0 0 19 12" fill="none" xmlns="http://www.w3.org/2000/svg">
<path d="M14.4622 2.38193C12.9561 1.47776 11.2325 1.00012 9.47582 1.00012C7.71917 1.00012 5.99557 1.47776 4.48948 2.38193C3.03009 3.26151 1.8269 4.50847 1 5.99834C1.8269 7.48822 3.03009 8.73517 4.48948 9.61476C5.99557 10.5189 7.71917 10.9966 9.47582 10.9966C11.2325 10.9966 12.9561 10.5189 14.4622 9.61476C15.9216 8.73517 17.1247 7.48822 17.9516 5.99834C17.1247 4.50847 15.9216 3.26151 14.4622 2.38193V2.38193Z" stroke="#AFB0B3" stroke-miterlimit="10"/>
<path d="M9.47583 9.48064C11.399 9.48064 12.9581 7.92157 12.9581 5.99835C12.9581 4.07513 11.399 2.51605 9.47583 2.51605C7.55261 2.51605 5.99353 4.07513 5.99353 5.99835C5.99353 7.92157 7.55261 9.48064 9.47583 9.48064Z" stroke="#AFB0B3" stroke-miterlimit="10"/>
</svg>
