<svg width="22" height="12" viewBox="0 0 22 12" fill="none" xmlns="http://www.w3.org/2000/svg">
<path d="M15.4529 6.50293H17.3983V7.72646H19.3865L20.6101 6.72164C20.7319 6.62224 20.8301 6.49697 20.8976 6.35492C20.965 6.21287 21 6.05759 21 5.90034C21 5.74309 20.965 5.58782 20.8976 5.44576C20.8301 5.30371 20.7319 5.17845 20.6101 5.07905L19.3865 4.07576H10.7851V2.62282C10.7862 2.41009 10.7451 2.19925 10.6644 2.00242C10.5837 1.80559 10.4649 1.62664 10.3148 1.47586C10.1648 1.32508 9.98637 1.20543 9.78992 1.12379C9.59347 1.04215 9.38283 1.00012 9.17009 1.00012H2.61505C2.18672 1.00012 1.77592 1.17028 1.47304 1.47316C1.17016 1.77604 1 2.18684 1 2.61518V9.17022C1 9.59856 1.17016 10.0094 1.47304 10.3122C1.77592 10.6151 2.18672 10.7853 2.61505 10.7853H9.17009C9.59843 10.7853 10.0092 10.6151 10.3121 10.3122C10.615 10.0094 10.7851 9.59856 10.7851 9.17022V7.71881H14.0764L15.4529 6.50293Z" stroke="#AFB0B3" stroke-miterlimit="10"/>
<path d="M5.93693 7.36244C6.70557 7.36244 7.32869 6.73933 7.32869 5.97068C7.32869 5.20203 6.70557 4.57892 5.93693 4.57892C5.16828 4.57892 4.54517 5.20203 4.54517 5.97068C4.54517 6.73933 5.16828 7.36244 5.93693 7.36244Z" stroke="#AFB0B3" stroke-miterlimit="10"/>
</svg>
