<svg width="17" height="17" viewBox="0 0 17 17" fill="none" xmlns="http://www.w3.org/2000/svg">
<path d="M14.9867 13.1462C16.0848 11.5935 16.5694 9.68937 16.3473 7.80063C16.1251 5.91188 15.2119 4.17217 13.7834 2.91665C12.355 1.66113 10.5125 0.978628 8.61089 1.00064C6.70925 1.02265 4.88303 1.74761 3.48406 3.03586C2.08509 4.3241 1.21234 6.08449 1.03396 7.97787C0.855582 9.87125 1.38419 11.7637 2.51794 13.2905C3.65169 14.8174 5.31037 15.8707 7.17443 16.2475C9.0385 16.6243 10.9761 16.2979 12.6138 15.3312L15.662 16.0427L14.9867 13.1462Z" stroke="#F3F6F8" stroke-miterlimit="10"/>
<path d="M8.69336 6.15222V11.6058" stroke="#F3F6F8" stroke-miterlimit="10"/>
<path d="M11.4201 8.87915H5.96655" stroke="#F3F6F8" stroke-miterlimit="10"/>
</svg>
