<svg width="23" height="20" viewBox="0 0 23 20" fill="none" xmlns="http://www.w3.org/2000/svg">
<path d="M21.0884 7.33704H1.91162C1.40815 7.33704 1 7.74518 1 8.24866V17.9095C1 18.413 1.40815 18.8211 1.91162 18.8211H21.0884C21.5919 18.8211 22 18.413 22 17.9095V8.24866C22 7.74518 21.5919 7.33704 21.0884 7.33704Z" stroke="#F3F6F8" stroke-miterlimit="10"/>
<path d="M20.2119 5.58861V1.00012H13.1222L11.6146 2.51014H2.78821V5.58861" stroke="#F3F6F8" stroke-miterlimit="10"/>
<path d="M16.4344 2.73425V5.406" stroke="#F3F6F8" stroke-miterlimit="10"/>
<path d="M17.7691 4.06909H15.0997" stroke="#F3F6F8" stroke-miterlimit="10"/>
<path d="M11.4999 11.8274C12.2164 11.8274 12.7973 11.2466 12.7973 10.5301C12.7973 9.81361 12.2164 9.23279 11.4999 9.23279C10.7835 9.23279 10.2026 9.81361 10.2026 10.5301C10.2026 11.2466 10.7835 11.8274 11.4999 11.8274Z" stroke="#F3F6F8" stroke-miterlimit="10"/>
<path d="M9.83572 13.1389H13.155C13.4029 13.1389 13.6407 13.2374 13.8161 13.4128C13.9914 13.5881 14.0899 13.8259 14.0899 14.0739V16.3857H8.9054V14.0669C8.90724 13.8209 9.00592 13.5856 9.18006 13.4119C9.35419 13.2382 9.58976 13.1401 9.83572 13.1389Z" stroke="#F3F6F8" stroke-miterlimit="10"/>
</svg>
