<svg width="10" height="16" viewBox="0 0 10 16" fill="none" xmlns="http://www.w3.org/2000/svg">
<path d="M1 4.43272V11.0438C1 12.0931 1.42143 13.0994 2.17157 13.8414C2.92172 14.5833 3.93913 15.0001 5 15.0001V15.0001C5.52529 15.0001 6.04543 14.8978 6.53073 14.699C7.01604 14.5001 7.45699 14.2087 7.82843 13.8414C8.19986 13.474 8.4945 13.0378 8.69552 12.5578C8.89654 12.0778 9 11.5634 9 11.0438V3.71716C9.00023 3.36043 8.92939 3.00716 8.79153 2.67753C8.65367 2.34789 8.45149 2.04835 8.19654 1.79603C7.94159 1.54371 7.63887 1.34354 7.30568 1.20698C6.97249 1.07041 6.61536 1.00012 6.2547 1.00012V1.00012C5.89388 0.999895 5.53656 1.07002 5.20317 1.20648C4.86978 1.34295 4.56686 1.54307 4.31173 1.79542C4.05659 2.04776 3.85425 2.34738 3.71628 2.67713C3.57831 3.00687 3.50742 3.36029 3.50765 3.71716V10.8036C3.50765 11.1951 3.66488 11.5705 3.94475 11.8473C4.22462 12.1241 4.6042 12.2796 5 12.2796C5.19613 12.2799 5.39037 12.2418 5.57164 12.1678C5.7529 12.0937 5.91762 11.985 6.05638 11.8479C6.19515 11.7108 6.30523 11.548 6.38034 11.3688C6.45544 11.1896 6.4941 10.9976 6.4941 10.8036V4.40852" stroke="#F3F6F8" stroke-miterlimit="10" stroke-linecap="round"/>
</svg>
