<svg width="19" height="14" viewBox="0 0 19 14" fill="none" xmlns="http://www.w3.org/2000/svg">
<path d="M14.4622 3.33524C12.9561 2.43107 11.2325 1.95343 9.47582 1.95343C7.71917 1.95343 5.99557 2.43107 4.48948 3.33524C3.03009 4.21482 1.8269 5.46177 1 6.95165C1.82724 8.44065 3.03039 9.68675 4.48948 10.5657C5.99557 11.4698 7.71917 11.9475 9.47582 11.9475C11.2325 11.9475 12.9561 11.4698 14.4622 10.5657C15.9216 9.68609 17.1247 8.43913 17.9516 6.94926C17.1244 5.46026 15.9213 4.21416 14.4622 3.33524V3.33524Z" stroke="#F3F6F8" stroke-miterlimit="10"/>
<path d="M9.47583 10.434C11.399 10.434 12.9581 8.87488 12.9581 6.95166C12.9581 5.02844 11.399 3.46936 9.47583 3.46936C7.55261 3.46936 5.99353 5.02844 5.99353 6.95166C5.99353 8.87488 7.55261 10.434 9.47583 10.434Z" stroke="#F3F6F8" stroke-miterlimit="10"/>
<path d="M3.52429 12.9032L15.4273 1.00012" stroke="#F3F6F8" stroke-miterlimit="10"/>
</svg>
