<svg width="17" height="17" viewBox="0 0 17 17" fill="none" xmlns="http://www.w3.org/2000/svg">
<path d="M11.2715 10.5457L10.9584 10.8555C10.7604 11.0581 10.5138 11.2057 10.2426 11.2839C9.9714 11.3622 9.68474 11.3684 9.41043 11.3021C8.84707 11.1509 8.31133 10.9097 7.8235 10.5879C7.37195 10.2954 6.95349 9.95394 6.5756 9.56965C6.22729 9.22207 5.91457 8.84 5.6422 8.42922C5.34463 7.98744 5.10917 7.50624 4.94251 6.99932C4.84898 6.70684 4.8379 6.3939 4.9105 6.09543C4.9831 5.79696 5.13653 5.5247 5.35367 5.30905L5.71866 4.94103C5.74269 4.91644 5.77132 4.89692 5.8029 4.88359C5.83448 4.87027 5.86837 4.8634 5.9026 4.8634C5.93683 4.8634 5.97072 4.87027 6.0023 4.88359C6.03388 4.89692 6.06251 4.91644 6.08654 4.94103V4.94103L7.24067 6.10473C7.26492 6.12918 7.28416 6.1582 7.29729 6.19015C7.31041 6.2221 7.31717 6.25634 7.31717 6.29092C7.31717 6.3255 7.31041 6.35974 7.29729 6.39169C7.28416 6.42364 7.26492 6.45266 7.24067 6.47711V6.47711L6.56406 7.15933C6.46902 7.25314 6.41083 7.37843 6.40023 7.5121C6.38962 7.64577 6.42732 7.7788 6.50635 7.88665C6.75106 8.22369 7.02167 8.54081 7.31569 8.83506C7.64415 9.16806 8.00142 9.47086 8.38325 9.73984C8.49016 9.8147 8.6197 9.84943 8.74937 9.838C8.87903 9.82658 9.00063 9.76972 9.09304 9.67729L9.74656 9.00671C9.77069 8.9823 9.79936 8.96293 9.83092 8.94972C9.86249 8.9365 9.89633 8.9297 9.9305 8.9297C9.96468 8.9297 9.99852 8.9365 10.0301 8.94972C10.0617 8.96293 10.0903 8.9823 10.1144 9.00671V9.00671L11.2686 10.1704C11.2933 10.1948 11.313 10.2239 11.3265 10.256C11.34 10.2881 11.3471 10.3226 11.3474 10.3575C11.3476 10.3923 11.3411 10.4269 11.328 10.4592C11.315 10.4915 11.2958 10.5209 11.2715 10.5457V10.5457Z" fill="#F3F6F8"/>
<circle cx="8.10526" cy="8.10538" r="7.60526" stroke="#F3F6F8"/>
</svg>
