<svg width="20" height="20" viewBox="0 0 20 20" fill="none" xmlns="http://www.w3.org/2000/svg">
<path d="M16.3656 3.63781C14.8935 2.16493 12.9561 1.24813 10.8838 1.04363C8.81141 0.839143 6.73227 1.35962 5.00067 2.51637C3.26907 3.67311 1.99219 5.39454 1.38763 7.38728C0.783063 9.38001 0.888239 11.5207 1.68523 13.4446C2.48222 15.3685 3.9217 16.9565 5.75834 17.9379C7.59499 18.9193 9.71515 19.2335 11.7575 18.8268C13.7998 18.4202 15.6379 17.3179 16.9586 15.7078C18.2792 14.0977 19.0007 12.0795 19 9.99707C18.9996 7.61189 18.052 5.32449 16.3656 3.63781V3.63781Z" stroke="#F3F6F8" stroke-miterlimit="10"/>
<path d="M7.9519 13.8782H12.531" stroke="#F3F6F8" stroke-miterlimit="10"/>
<path d="M10.2404 13.878V8.06085H7.9519" stroke="#F3F6F8" stroke-miterlimit="10"/>
<path d="M10.1477 6.36698C10.489 6.36698 10.7657 6.09029 10.7657 5.74898C10.7657 5.40767 10.489 5.13098 10.1477 5.13098C9.80635 5.13098 9.52966 5.40767 9.52966 5.74898C9.52966 6.09029 9.80635 6.36698 10.1477 6.36698Z" fill="#F3F6F8"/>
</svg>
