<svg width="80" height="51" viewBox="0 0 80 51" fill="none" xmlns="http://www.w3.org/2000/svg">
<path d="M34.5 25.4938H21.9393L6.48971 10.0388L2 14.5285L19.6836 32.2122H74.796V26.8806" stroke="#F3F6F8" stroke-width="2" stroke-miterlimit="10"/>
<path d="M16.7264 11.9761C19.7574 11.9761 22.2145 9.51898 22.2145 6.48803C22.2145 3.45707 19.7574 1 16.7264 1C13.6955 1 11.2384 3.45707 11.2384 6.48803C11.2384 9.51898 13.6955 11.9761 16.7264 11.9761Z" stroke="#C5913F" stroke-width="2" stroke-miterlimit="10"/>
<path d="M32.3541 12.1649V9.40732L56.0978 9.27241C60.0155 9.24802 63.872 10.2449 67.287 12.1649C70.7021 14.0849 73.5579 16.8616 75.573 20.2215L78.0229 24.2741C78.1947 24.5593 78.2873 24.885 78.2912 25.2179C78.2951 25.5507 78.2103 25.8786 78.0454 26.1678C77.8805 26.4569 77.6415 26.6969 77.353 26.863C77.0645 27.029 76.7369 27.1152 76.404 27.1125H39.0401V22.9999" stroke="#F3F6F8" stroke-width="2" stroke-miterlimit="10"/>
<path d="M20.6334 15.4244L23.9521 18.7431C24.4405 19.2311 25.0202 19.618 25.6582 19.8819C26.2961 20.1458 26.9798 20.2814 27.6702 20.281H44.8142C45.4854 20.281 46.1292 20.0144 46.6038 19.5398C47.0784 19.0651 47.3451 18.4214 47.3451 17.7502C47.3458 17.4174 47.2808 17.0877 47.154 16.78C47.0271 16.4723 46.8408 16.1927 46.6057 15.9571C46.3706 15.7215 46.0914 15.5346 45.784 15.4071C45.4766 15.2795 45.147 15.2139 44.8142 15.2139H29.4995C29.1324 15.2147 28.7688 15.1426 28.4298 15.0018C28.0907 14.861 27.783 14.6543 27.5245 14.3937L24.7022 11.5714" stroke="#C5913F" stroke-width="2" stroke-miterlimit="10"/>
<path d="M27 36V46" stroke="#F3F6F8" stroke-width="2" stroke-miterlimit="10"/>
<path d="M69 36V46" stroke="#F3F6F8" stroke-width="2" stroke-miterlimit="10"/>
<path d="M73 51V48C73 46.8954 72.1046 46 71 46H25C23.8954 46 23 46.8954 23 48V51" stroke="#F3F6F8" stroke-width="2"/>
</svg>
