<svg width="109" height="48" viewBox="0 0 109 48" fill="none" xmlns="http://www.w3.org/2000/svg">
<path d="M105.138 29.1853H81.9049C80.3245 29.1853 79.0433 30.4665 79.0433 32.0469V43.9956C79.0433 45.576 80.3245 46.8572 81.9049 46.8572H105.138C106.719 46.8572 108 45.576 108 43.9956V32.0469C108 30.4665 106.719 29.1853 105.138 29.1853Z" stroke="#F3F6F8" stroke-width="2" stroke-miterlimit="10"/>
<path d="M84.4256 29.939V24.2606C84.3981 21.8303 85.3202 19.4851 86.9956 17.7243C88.671 15.9635 90.9674 14.926 93.3961 14.8327C94.6059 14.816 95.8069 15.0399 96.9294 15.4914C98.0518 15.9429 99.0734 16.6129 99.9347 17.4625C100.796 18.3122 101.48 19.3245 101.947 20.4407C102.413 21.5569 102.654 22.7547 102.654 23.9646V29.939" stroke="#F3F6F8" stroke-width="2" stroke-miterlimit="10"/>
<path d="M70.6648 36.2361H8.34683C6.39833 36.2361 4.52964 35.462 3.15184 34.0842C1.77404 32.7064 1 30.8378 1 28.8893V8.34683C1 6.39833 1.77404 4.52963 3.15184 3.15184C4.52964 1.77404 6.39833 1 8.34683 1H89.2158C91.1643 1 93.033 1.77404 94.4108 3.15184C95.7886 4.52963 96.5626 6.39833 96.5626 8.34683" stroke="#F3F6F8" stroke-width="2" stroke-miterlimit="10"/>
<path d="M20.6545 24.1258C23.3694 24.1258 25.5703 21.925 25.5703 19.21C25.5703 16.4951 23.3694 14.2942 20.6545 14.2942C17.9395 14.2942 15.7386 16.4951 15.7386 19.21C15.7386 21.925 17.9395 24.1258 20.6545 24.1258Z" fill="#C5913F"/>
<path d="M37.5098 24.1258C40.2248 24.1258 42.4257 21.925 42.4257 19.21C42.4257 16.4951 40.2248 14.2942 37.5098 14.2942C34.7949 14.2942 32.594 16.4951 32.594 19.21C32.594 21.925 34.7949 24.1258 37.5098 24.1258Z" fill="#C5913F"/>
<path d="M53.7016 24.1258C56.4165 24.1258 58.6174 21.925 58.6174 19.21C58.6174 16.4951 56.4165 14.2942 53.7016 14.2942C50.9867 14.2942 48.7858 16.4951 48.7858 19.21C48.7858 21.925 50.9867 24.1258 53.7016 24.1258Z" fill="#C5913F"/>
<path d="M71.5079 24.1258C74.2228 24.1258 76.4237 21.925 76.4237 19.21C76.4237 16.4951 74.2228 14.2942 71.5079 14.2942C68.7929 14.2942 66.592 16.4951 66.592 19.21C66.592 21.925 68.7929 24.1258 71.5079 24.1258Z" fill="#C5913F"/>
</svg>
