<svg width="63" height="71" viewBox="0 0 63 71" fill="none" xmlns="http://www.w3.org/2000/svg">
<path d="M0 69.8278H62.7627" stroke="#F3F6F8" stroke-width="2" stroke-miterlimit="10"/>
<path d="M26.3933 31.6139L20.8743 37.1329L11.5619 27.8135L37.3754 2L46.6878 11.3194L42.4193 15.5879" stroke="#C5913F" stroke-width="2" stroke-miterlimit="10"/>
<path d="M19.3444 34.3874L11.1916 42.5472L6.08484 37.4404L14.2376 29.2806" stroke="#C5913F" stroke-width="2" stroke-miterlimit="10"/>
<path d="M33.4353 59.0621L38.1718 54.3256C39.9166 52.5834 41.3008 50.5144 42.2452 48.2368C43.1896 45.9592 43.6757 43.5177 43.6757 41.0521C43.6757 38.5864 43.1896 36.145 42.2452 33.8674C41.3008 31.5898 39.9166 29.5207 38.1718 27.7786" stroke="#F3F6F8" stroke-width="2" stroke-miterlimit="10"/>
<path d="M2.09802 51.5565H18.8576" stroke="#C5913F" stroke-width="2" stroke-miterlimit="10"/>
<path d="M47.2539 69.9494V59.1838H19.5262V69.9494" stroke="#F3F6F8" stroke-width="2" stroke-miterlimit="10"/>
<path d="M34.8673 29.092C37.5913 29.092 39.7995 26.8838 39.7995 24.1598C39.7995 21.4359 37.5913 19.2277 34.8673 19.2277C32.1434 19.2277 29.9352 21.4359 29.9352 24.1598C29.9352 26.8838 32.1434 29.092 34.8673 29.092Z" stroke="#F3F6F8" stroke-width="2" stroke-miterlimit="10"/>
</svg>
