<svg width="70" height="85" viewBox="0 0 70 85" fill="none" xmlns="http://www.w3.org/2000/svg">
<path d="M44.758 39.1306H24.2602C22.8659 39.1306 21.7356 40.2609 21.7356 41.6552V52.197C21.7356 53.5913 22.8659 54.7216 24.2602 54.7216H44.758C46.1523 54.7216 47.2827 53.5913 47.2827 52.197V41.6552C47.2827 40.2609 46.1523 39.1306 44.758 39.1306Z" stroke="#C5913F" stroke-width="2" stroke-miterlimit="10"/>
<path d="M26.4605 39.7953V34.7856C26.4342 32.6409 27.247 30.5707 28.7255 29.0168C30.204 27.4629 32.2312 26.5482 34.3747 26.4678C35.4436 26.4489 36.5055 26.6431 37.4986 27.0391C38.4916 27.4351 39.3958 28.025 40.1583 28.7743C40.9209 29.5236 41.5265 30.4173 41.9399 31.4032C42.3532 32.3891 42.566 33.4475 42.5659 34.5166V39.7953" stroke="#C5913F" stroke-width="2" stroke-miterlimit="10"/>
<path d="M28.0828 1L35.4984 8.41561L28.0828 15.8312" stroke="#F3F6F8" stroke-width="2" stroke-miterlimit="10"/>
<path d="M42.0752 68.5161L34.6595 75.9317L42.0752 83.3473" stroke="#F3F6F8" stroke-width="2" stroke-miterlimit="10"/>
<path d="M34.6595 75.9159C42.4922 75.9185 50.0819 73.1964 56.1274 68.2162C62.1729 63.236 66.2977 56.3079 67.7948 48.6196C69.2918 40.9313 68.0678 32.9617 64.3326 26.077C60.5974 19.1924 54.5837 13.8214 47.3223 10.8849" stroke="#F3F6F8" stroke-width="2" stroke-miterlimit="10"/>
<path d="M34.6596 8.4314C26.8679 8.45323 19.3238 11.17 13.3072 16.1207C7.29052 21.0714 3.17191 27.9512 1.65011 35.5928C0.128316 43.2344 1.29707 51.1672 4.95807 58.0451C8.61907 64.9231 14.5469 70.3228 21.7357 73.3279" stroke="#F3F6F8" stroke-width="2" stroke-miterlimit="10"/>
<path d="M34.4357 44.981L34.4357 48.724" stroke="#C5913F" stroke-width="2" stroke-linecap="round"/>
</svg>
