<svg width="77" height="62" viewBox="0 0 77 62" fill="none" xmlns="http://www.w3.org/2000/svg">
<path d="M41.6497 44.7653H1V10.5313L24.1753 2L47.3506 10.5313" stroke="#F3F6F8" stroke-width="2" stroke-miterlimit="10"/>
<path d="M75.3348 29.3266C75.3348 37.8522 59.896 60.2041 59.896 60.2041C59.896 60.2041 44.4573 37.8522 44.4573 29.3266C44.4573 27.2991 44.8566 25.2915 45.6325 23.4184C46.4083 21.5453 47.5456 19.8433 48.9792 18.4097C50.4128 16.9761 52.1148 15.8389 53.9879 15.063C55.861 14.2872 57.8686 13.8878 59.896 13.8878C61.9235 13.8878 63.9311 14.2872 65.8042 15.063C67.6773 15.8389 69.3793 16.9761 70.8129 18.4097C72.2465 19.8433 73.3837 21.5453 74.1596 23.4184C74.9354 25.2915 75.3348 27.2991 75.3348 29.3266V29.3266Z" stroke="#C5913F" stroke-width="2" stroke-miterlimit="10"/>
<path d="M11.2925 44.7654V24.1804H39.1541" stroke="#F3F6F8" stroke-width="2" stroke-miterlimit="10"/>
<path d="M59.896 34.4729C62.7382 34.4729 65.0423 32.1689 65.0423 29.3267C65.0423 26.4845 62.7382 24.1804 59.896 24.1804C57.0538 24.1804 54.7498 26.4845 54.7498 29.3267C54.7498 32.1689 57.0538 34.4729 59.896 34.4729Z" stroke="#C5913F" stroke-width="2" stroke-miterlimit="10"/>
</svg>
