<svg width="76" height="71" viewBox="0 0 76 71" fill="none" xmlns="http://www.w3.org/2000/svg">
<path d="M53.8421 32.2744C59.6789 32.2744 64.4106 27.5897 64.4106 21.8108C64.4106 16.032 59.6789 11.3473 53.8421 11.3473C48.0053 11.3473 43.2737 16.032 43.2737 21.8108C43.2737 27.5897 48.0053 32.2744 53.8421 32.2744Z" stroke="#C5913F" stroke-width="2" stroke-miterlimit="10"/>
<path d="M40.2852 42.8541H67.3933C68.3892 42.8534 69.3755 43.0469 70.2958 43.4237C71.2161 43.8005 72.0524 44.3532 72.7569 45.0501C73.4614 45.7471 74.0202 46.5747 74.4015 47.4856C74.7828 48.3964 74.9791 49.3728 74.9791 50.3588V69.013H32.7053V50.3588C32.7053 48.3684 33.5039 46.4596 34.9254 45.0522C36.3469 43.6448 38.2749 42.8541 40.2852 42.8541V42.8541Z" stroke="#C5913F" stroke-width="2" stroke-miterlimit="10"/>
<path d="M18.614 18.4392C23.478 18.4392 27.4211 14.5353 27.4211 9.71962C27.4211 4.90391 23.478 1 18.614 1C13.75 1 9.80701 4.90391 9.80701 9.71962C9.80701 14.5353 13.75 18.4392 18.614 18.4392Z" stroke="#F3F6F8" stroke-width="2" stroke-miterlimit="10"/>
<path d="M24.8964 49.3939H1V33.8439C1.00156 32.186 1.66784 30.5966 2.85245 29.4248C4.03706 28.253 5.64307 27.5948 7.31758 27.5948H29.9105C31.5851 27.5948 33.1911 28.253 34.3757 29.4248C35.5603 30.5966 36.2266 32.186 36.2281 33.8439V35.2681" stroke="#F3F6F8" stroke-width="2" stroke-miterlimit="10"/>
</svg>
