<svg width="61" height="61" viewBox="0 0 61 61" fill="none" xmlns="http://www.w3.org/2000/svg">
<path d="M53.2229 15.6217H7.34386C3.84024 15.6217 1 18.4619 1 21.9656V53.5432C1 57.0468 3.84024 59.8871 7.34386 59.8871H53.2229C56.7265 59.8871 59.5668 57.0468 59.5668 53.5432V21.9656C59.5668 18.4619 56.7265 15.6217 53.2229 15.6217Z" stroke="#F3F6F8" stroke-width="2" stroke-miterlimit="10"/>
<path d="M16.1637 9.59193V4.66466C16.1718 3.68991 16.5647 2.75785 17.2569 2.07146C17.949 1.38508 18.8844 0.999966 19.8591 1H39.9994C40.9741 0.999966 41.9095 1.38508 42.6016 2.07146C43.2938 2.75785 43.6867 3.68991 43.6948 4.66466V9.59193" stroke="#F3F6F8" stroke-width="2" stroke-miterlimit="10"/>
<path d="M30.2803 28.4572V47.0514" stroke="#C5913F" stroke-width="2" stroke-miterlimit="10"/>
<path d="M39.5805 37.7513H20.9862" stroke="#C5913F" stroke-width="2" stroke-miterlimit="10"/>
</svg>
