<svg width="103" height="52" viewBox="0 0 103 52" fill="none" xmlns="http://www.w3.org/2000/svg">
<path d="M73.9871 28.7892H83.8115V34.968H93.852L100.031 29.8936C100.646 29.3917 101.142 28.7591 101.483 28.0417C101.823 27.3244 102 26.5402 102 25.7461C102 24.952 101.823 24.1679 101.483 23.4505C101.142 22.7331 100.646 22.1005 100.031 21.5986L93.852 16.532H50.415V9.19464C50.4201 8.12033 50.2129 7.0556 49.8053 6.06161C49.3977 5.06761 48.7977 4.16393 48.0399 3.40248C47.282 2.64103 46.3812 2.03681 45.3891 1.62451C44.397 1.21222 43.3333 0.999988 42.259 1H9.15602C6.99291 1 4.9184 1.85929 3.38884 3.38884C1.85929 4.9184 1 6.99291 1 9.15602V42.259C1 44.4221 1.85929 46.4966 3.38884 48.0262C4.9184 49.5557 6.99291 50.415 9.15602 50.415H42.259C44.4221 50.415 46.4966 49.5557 48.0262 48.0262C49.5557 46.4966 50.415 44.4221 50.415 42.259V34.9294H67.036L73.9871 28.7892Z" stroke="#F3F6F8" stroke-width="2" stroke-miterlimit="10"/>
<path d="M25.9312 33.1298C29.8129 33.1298 32.9596 29.9831 32.9596 26.1014C32.9596 22.2197 29.8129 19.073 25.9312 19.073C22.0495 19.073 18.9028 22.2197 18.9028 26.1014C18.9028 29.9831 22.0495 33.1298 25.9312 33.1298Z" stroke="#C5913F" stroke-width="2" stroke-miterlimit="10"/>
</svg>
