<svg width="44" height="28" viewBox="0 0 44 28" fill="none" xmlns="http://www.w3.org/2000/svg">
<path fill-rule="evenodd" clip-rule="evenodd" d="M43.6205 27.9747H0.844482V27.4445H43.6205V27.9747Z" fill="#C5913F"/>
<path d="M18.3116 4.56116V1.05428H17.7605V1.32683C17.7605 1.62664 17.6431 1.64481 17.5166 1.64481C17.4353 1.64481 17.345 1.61756 17.2547 1.56305C16.0532 0.799894 14.7343 0.400146 13.3613 0.400146C10.8229 0.400146 8.78132 1.39043 7.3089 3.33465C5.83645 5.26979 5.08667 7.75911 5.08667 10.7572C5.08667 13.7553 5.8274 16.2265 7.29985 18.1253C8.78132 20.0331 10.8139 21.0053 13.3522 21.0053C14.7705 21.0053 16.0803 20.6237 17.2456 19.8696C17.354 19.8151 17.4444 19.7878 17.5257 19.7878C17.6521 19.7878 17.7696 19.806 17.7696 20.0786V20.3511H18.3206V16.8715H17.7696V17.0441C17.7696 17.4621 17.616 17.9526 17.3088 18.4887C17.0017 19.0338 16.6223 19.4426 16.1797 19.7243C15.3757 20.2149 14.4272 20.4602 13.3613 20.4602C11.3378 20.4602 9.79306 19.588 8.7723 17.8709C7.7425 16.1265 7.20953 13.7372 7.20953 10.7754C7.20953 7.81362 7.73345 5.40607 8.7723 3.61629C9.78405 1.84469 11.3288 0.95434 13.3613 0.95434C14.4543 0.95434 15.4028 1.20872 16.1706 1.70841C16.6133 1.98096 16.9927 2.39888 17.2998 2.94399C17.607 3.4891 17.7605 3.9706 17.7605 4.38854V4.56116H18.3116Z" fill="white"/>
<path d="M37.4168 11.0774C36.5199 10.3102 35.3594 9.84069 33.97 9.66128C34.9128 9.37118 35.6648 8.93985 36.2947 8.37874C37.1457 7.61149 37.5695 6.59997 37.5695 5.38993C37.5695 4.01959 36.9396 2.88973 35.7564 1.99652C34.5464 1.1224 33.0081 0.687256 31.1071 0.687256H24.5303V1.22928H26.164H26.3434H27.5534H28.1107H30.9468C32.3286 1.22928 33.4508 1.59191 34.2601 2.28662C35.0846 2.98134 35.4892 4.1112 35.4892 5.68003C35.4892 6.85188 35.1304 7.79091 34.3937 8.51615C33.676 9.23759 32.6721 9.60019 31.4392 9.60019H28.2176V3.27907V3.11494C28.2176 2.07668 27.3664 1.22928 26.3434 1.22928V5.03111V10.1384H27.5114H28.1145H32.7447C34.199 10.1384 35.2754 10.5888 35.9663 11.4477C36.684 12.3485 37.0428 13.5433 37.0428 15.0205C37.0428 16.4557 36.638 17.6734 35.8327 18.6849C35.0502 19.6774 34.0005 20.166 32.7447 20.166H28.2291V12.2035V9.96283C28.2291 8.90549 27.4045 10.1613 26.3548 10.1346V13.9632V20.1736H24.5417V20.7347H32.7447C34.6189 20.7347 36.1915 20.1736 37.3748 19.0475C38.558 17.9482 39.1611 16.5932 39.1611 15.0205C39.165 13.3944 38.581 12.0699 37.4168 11.0774Z" fill="white"/>
</svg>
