<svg width="265" height="265" viewBox="0 0 265 265" fill="none" xmlns="http://www.w3.org/2000/svg">
<rect width="265" height="265" fill="#1D1E22"/>
<path d="M67.8643 137.951V163H59.4268V99.0156H83.0254C90.0273 99.0156 95.5059 100.803 99.4609 104.377C103.445 107.951 105.438 112.683 105.438 118.571C105.438 124.782 103.489 129.572 99.5928 132.941C95.7256 136.281 90.1738 137.951 82.9375 137.951H67.8643ZM67.8643 131.052H83.0254C87.5371 131.052 90.9941 129.997 93.3965 127.888C95.7988 125.749 97 122.673 97 118.659C97 114.851 95.7988 111.804 93.3965 109.519C90.9941 107.233 87.6982 106.047 83.5088 105.959H67.8643V131.052ZM151.492 134.743H124.642V163H116.204V99.0156H155.843V105.959H124.642V127.844H151.492V134.743ZM189.417 137.116H174.388V163H165.906V99.0156H187.088C194.295 99.0156 199.832 100.656 203.699 103.938C207.596 107.219 209.544 111.994 209.544 118.264C209.544 122.248 208.46 125.72 206.292 128.679C204.153 131.638 201.165 133.85 197.327 135.314L212.356 162.473V163H203.304L189.417 137.116ZM174.388 130.217H187.352C191.541 130.217 194.866 129.133 197.327 126.965C199.817 124.797 201.062 121.896 201.062 118.264C201.062 114.309 199.876 111.276 197.503 109.167C195.159 107.058 191.761 105.988 187.308 105.959H174.388V130.217Z" fill="white"/>
</svg>
