<svg width="18" height="18" viewBox="0 0 18 18" fill="none" xmlns="http://www.w3.org/2000/svg">
<path d="M15.6451 13.7179C16.7949 12.0921 17.3024 10.0983 17.0698 8.12065C16.8372 6.14299 15.8809 4.32138 14.3853 3.00675C12.8896 1.69212 10.9603 0.977494 8.96919 1.00054C6.97803 1.02359 5.06584 1.78268 3.601 3.13157C2.13617 4.48047 1.22234 6.32372 1.03556 8.30624C0.848783 10.2888 1.40227 12.2703 2.5894 13.869C3.77652 15.4677 5.51329 16.5706 7.46511 16.9651C9.41692 17.3597 11.4457 17.0179 13.1606 16.0058L16.3523 16.7508L15.6451 13.7179Z" stroke="#F3F6F8" stroke-miterlimit="10"/>
<path d="M9.05554 6.39465V12.1049" stroke="#F3F6F8" stroke-miterlimit="10"/>
<path d="M11.9107 9.24982H6.20044" stroke="#F3F6F8" stroke-miterlimit="10"/>
</svg>
