<svg width="17" height="17" viewBox="0 0 17 17" fill="#C5913F" xmlns="http://www.w3.org/2000/svg">
<path d="M14.6451 12.7179C15.7949 11.0921 16.3024 9.09831 16.0698 7.12065C15.8372 5.14299 14.8809 3.32138 13.3853 2.00675C11.8896 0.692123 9.96034 -0.0225058 7.96919 0.000540535C5.97803 0.0235869 4.06584 0.782678 2.601 2.13157C1.13617 3.48046 0.222341 5.32372 0.0355622 7.30624C-0.151217 9.28875 0.402272 11.2703 1.5894 12.869C2.77652 14.4677 4.51329 15.5706 6.46511 15.9651C8.41692 16.3597 10.4457 16.0179 12.1606 15.0058L15.3523 15.7508L14.6451 12.7179Z" fill="#C5913F"/>
<path d="M8.05554 5.39465V11.1049" stroke="#1D1E22" stroke-miterlimit="10"/>
<path d="M10.9107 8.24982H5.20044" stroke="#1D1E22" stroke-miterlimit="10"/>
</svg>
