<svg width="45" height="30" viewBox="0 0 45 30" fill="none" xmlns="http://www.w3.org/2000/svg">
<path d="M7.48446 7.49218C9.27722 7.49218 10.7305 6.03886 10.7305 4.24609C10.7305 2.45332 9.27722 1 7.48446 1C5.69169 1 4.23837 2.45332 4.23837 4.24609C4.23837 6.03886 5.69169 7.49218 7.48446 7.49218Z" stroke="#F3F6F8" stroke-width="2" stroke-miterlimit="10"/>
<path d="M13.9689 14.3399C13.9689 13.7249 13.7246 13.1352 13.2898 12.7004C12.855 12.2655 12.2652 12.0212 11.6503 12.0212H3.31864C2.7037 12.0212 2.11394 12.2655 1.67911 12.7004C1.24428 13.1352 1 13.7249 1 14.3399V20.121H9.57122" stroke="#F3F6F8" stroke-width="2" stroke-miterlimit="10"/>
<path d="M21.6977 12.1912C23.9942 12.1912 25.8558 10.3295 25.8558 8.03309C25.8558 5.73664 23.9942 3.875 21.6977 3.875C19.4013 3.875 17.5396 5.73664 17.5396 8.03309C17.5396 10.3295 19.4013 12.1912 21.6977 12.1912Z" stroke="#F3F6F8" stroke-width="2" stroke-miterlimit="10"/>
<path d="M16.3648 18.0035H27.0306C27.8218 18.0035 28.5806 18.3178 29.1401 18.8772C29.6996 19.4367 30.0139 20.1955 30.0139 20.9868V28.3987H13.3661V20.9713C13.3681 20.5795 13.4473 20.192 13.5991 19.8308C13.7509 19.4696 13.9723 19.1419 14.2508 18.8663C14.5292 18.5907 14.8592 18.3727 15.222 18.2246C15.5847 18.0766 15.9731 18.0014 16.3648 18.0035V18.0035Z" stroke="#F3F6F8" stroke-width="2" stroke-miterlimit="10"/>
<path d="M39.4121 5.49805V16.6816" stroke="#F3F6F8" stroke-width="2" stroke-miterlimit="10"/>
<path d="M45 11.0938H33.8164" stroke="#F3F6F8" stroke-width="2" stroke-miterlimit="10"/>
</svg>
