<svg width="88" height="88" viewBox="0 0 88 88" fill="none" xmlns="http://www.w3.org/2000/svg">
<path d="M73.85 13.5056C66.8705 6.5225 57.6854 2.17582 47.8601 1.2063C38.0348 0.236781 28.1774 2.70443 19.9677 8.1887C11.7579 13.673 5.70408 21.8345 2.83778 31.2823C-0.0285227 40.7301 0.470127 50.8795 4.24875 60.0008C8.02737 69.1221 14.8521 76.6509 23.5599 81.304C32.2676 85.9571 42.3195 87.4466 52.0025 85.5186C61.6854 83.5906 70.4002 78.3645 76.6615 70.7309C82.9229 63.0973 86.3434 53.5286 86.34 43.6556C86.3384 32.3472 81.8458 21.5023 73.85 13.5056V13.5056Z" stroke="#C5913F" stroke-width="2" stroke-miterlimit="10"/>
<path d="M32.9 31.1856V56.1856C32.9013 56.7783 33.0584 57.3603 33.3555 57.8731C33.6527 58.386 34.0795 58.8116 34.5931 59.1074C35.1067 59.4032 35.6891 59.5588 36.2818 59.5585C36.8745 59.5582 37.4567 59.402 37.97 59.1056L59.39 46.5856C59.8982 46.2874 60.3195 45.8615 60.6123 45.3502C60.9051 44.8388 61.0591 44.2598 61.0591 43.6706C61.0591 43.0814 60.9051 42.5024 60.6123 41.9911C60.3195 41.4798 59.8982 41.0539 59.39 40.7556L37.97 28.2756C37.458 27.9765 36.876 27.8177 36.283 27.8155C35.6899 27.8132 35.1068 27.9674 34.5925 28.2626C34.0781 28.5579 33.6508 28.9836 33.3536 29.4968C33.0565 30.01 32.9 30.5926 32.9 31.1856Z" fill="#C5913F"/>
</svg>
