<svg width="16" height="16" viewBox="0 0 16 16" fill="none" xmlns="http://www.w3.org/2000/svg">
<path d="M11.1251 10.4086L10.8161 10.7144C10.6206 10.9143 10.3773 11.06 10.1096 11.1372C9.84189 11.2144 9.55895 11.2206 9.2882 11.1551C8.73216 11.0059 8.20338 10.7679 7.72188 10.4502C7.27619 10.1615 6.86317 9.82448 6.49019 9.44518C6.1464 9.10211 5.83775 8.725 5.56891 8.31956C5.27521 7.88351 5.0428 7.40856 4.87831 6.90823C4.78599 6.61954 4.77506 6.31067 4.84671 6.01607C4.91837 5.72148 5.06981 5.45276 5.28413 5.2399L5.64438 4.87666C5.6681 4.8524 5.69636 4.83313 5.72753 4.81997C5.75869 4.80682 5.79214 4.80005 5.82593 4.80005C5.85972 4.80005 5.89317 4.80682 5.92434 4.81997C5.9555 4.83313 5.98377 4.8524 6.00748 4.87666L7.14662 6.02525C7.17056 6.04938 7.18955 6.07803 7.2025 6.10957C7.21546 6.1411 7.22213 6.1749 7.22213 6.20903C7.22213 6.24316 7.21546 6.27695 7.2025 6.30849C7.18955 6.34002 7.17056 6.36867 7.14662 6.3928L6.4788 7.06616C6.385 7.15875 6.32756 7.28241 6.3171 7.41435C6.30663 7.54628 6.34383 7.67758 6.42184 7.78403C6.66337 8.11669 6.93046 8.42969 7.22066 8.72013C7.54486 9.04881 7.89749 9.34767 8.27437 9.61316C8.37989 9.68704 8.50774 9.72132 8.63572 9.71005C8.76371 9.69877 8.88373 9.64264 8.97494 9.55142L9.61997 8.88955C9.64378 8.86545 9.67208 8.84634 9.70323 8.83329C9.73439 8.82025 9.76779 8.81354 9.80152 8.81354C9.83526 8.81354 9.86866 8.82025 9.89981 8.83329C9.93097 8.84634 9.95926 8.86545 9.98307 8.88955L11.1222 10.0381C11.1466 10.0622 11.166 10.0909 11.1794 10.1226C11.1927 10.1543 11.1997 10.1883 11.2 10.2227C11.2002 10.2572 11.1938 10.2913 11.1809 10.3232C11.168 10.3551 11.1491 10.3841 11.1251 10.4086Z" fill="#77787A"/>
<circle cx="8" cy="8" r="7.5" stroke="#77787A"/>
</svg>
