<svg width="14" height="23" viewBox="0 0 14 23" fill="none" xmlns="http://www.w3.org/2000/svg">
<path d="M1 6.14889V16.0656C1 17.6395 1.63214 19.1489 2.75736 20.2618C3.88258 21.3748 5.4087 22 7 22C7.78793 22 8.56815 21.8465 9.2961 21.5483C10.0241 21.25 10.6855 20.8129 11.2426 20.2618C11.7998 19.7108 12.2417 19.0566 12.5433 18.3366C12.8448 17.6166 13 16.8449 13 16.0656V5.07556C13.0003 4.54047 12.8941 4.01056 12.6873 3.5161C12.4805 3.02165 12.1772 2.57234 11.7948 2.19386C11.4124 1.81538 10.9583 1.51513 10.4585 1.31028C9.95874 1.10544 9.42304 1 8.88204 1C8.34083 0.99966 7.80485 1.10484 7.30476 1.30954C6.80467 1.51423 6.35029 1.81442 5.96759 2.19294C5.58489 2.57146 5.28138 3.02088 5.07443 3.51551C4.86747 4.01013 4.76112 4.54025 4.76147 5.07556V15.7052C4.76147 16.2924 4.99731 16.8556 5.41712 17.2708C5.83693 17.686 6.4063 17.9193 7 17.9193C7.29419 17.9196 7.58556 17.8626 7.85745 17.7515C8.12935 17.6404 8.37643 17.4773 8.58458 17.2717C8.79272 17.0661 8.95784 16.8219 9.0705 16.5531C9.18316 16.2843 9.24115 15.9962 9.24115 15.7052V6.11259" stroke="#C4C4C4" stroke-miterlimit="10" stroke-linecap="round"/>
</svg>
