<svg width="39" height="40" viewBox="0 0 39 40" fill="none" xmlns="http://www.w3.org/2000/svg">
<path d="M37.5341 20.7962L15.5843 20.7962C15.5421 21.2028 15.4666 21.5817 15.3578 21.8898L12.3102 30.509C11.9008 31.6669 12.2773 32.2772 12.5379 32.5379L12.538 32.538C12.7709 32.7709 13.4476 33.245 14.6992 32.6192L36.469 21.7343C36.9572 21.4901 37.3207 21.167 37.5341 20.7962Z" fill="#C5913F"/>
<path d="M15.5844 19.2046L37.5354 19.2046C37.4516 19.0583 37.3443 18.9187 37.2142 18.7887C37.0156 18.5901 36.765 18.4145 36.469 18.2666L14.6995 7.38167C13.5477 6.8059 12.8875 7.15125 12.5965 7.40821C12.3054 7.66531 11.8813 8.27788 12.3107 9.49173L15.3581 18.1111C15.4667 18.419 15.5422 18.7979 15.5844 19.2046Z" fill="#C5913F"/>
</svg>
