<svg width="15" height="15" viewBox="0 0 15 15" fill="none" xmlns="http://www.w3.org/2000/svg">
<path d="M14.959 4.41004C14.9238 3.61303 14.7949 3.0651 14.6103 2.5903C14.4199 2.08632 14.1268 1.63511 13.7429 1.26001C13.3678 0.879078 12.9136 0.583076 12.4155 0.395585C11.9379 0.210956 11.3929 0.0820702 10.5959 0.0469299C9.7929 0.00881367 9.53799 0 7.50146 0C5.46493 0 5.21002 0.00881367 4.41004 0.0439539C3.61303 0.0790941 3.0651 0.208094 2.59042 0.392609C2.08632 0.583076 1.63511 0.876102 1.26001 1.26001C0.879078 1.63511 0.58319 2.0893 0.395585 2.58744C0.210956 3.0651 0.0820701 3.61006 0.0469299 4.40706C0.00881366 5.21002 0 5.46493 0 7.50147C0 9.538 0.00881366 9.79291 0.0439539 10.5929C0.0790941 11.3899 0.208094 11.9378 0.392723 12.4126C0.58319 12.9166 0.879078 13.3678 1.26001 13.7429C1.63511 14.1239 2.0893 14.4199 2.58744 14.6073C3.0651 14.792 3.61006 14.9209 4.40718 14.956C5.20705 14.9913 5.46207 15 7.4986 15C9.53513 15 9.79004 14.9913 10.59 14.956C11.387 14.9209 11.935 14.792 12.4096 14.6073C13.4177 14.2176 14.2147 13.4206 14.6045 12.4126C14.789 11.935 14.918 11.3899 14.9531 10.5929C14.9883 9.79291 14.9971 9.538 14.9971 7.50147C14.9971 5.46493 14.9941 5.21002 14.959 4.41004ZM13.6082 10.5343C13.5759 11.2668 13.4529 11.6624 13.3503 11.9262C13.0983 12.5796 12.5796 13.0983 11.9262 13.3503C11.6624 13.4529 11.264 13.5759 10.5343 13.6081C9.74311 13.6433 9.50583 13.652 7.50444 13.652C5.50305 13.652 5.26279 13.6433 4.47448 13.6081C3.74192 13.5759 3.34633 13.4529 3.08261 13.3503C2.75742 13.2301 2.46142 13.0397 2.22116 12.7906C1.97209 12.5473 1.78162 12.2543 1.66143 11.9291C1.55887 11.6654 1.43583 11.2668 1.40366 10.5373C1.36841 9.74609 1.35971 9.50869 1.35971 7.5073C1.35971 5.50591 1.36841 5.26565 1.40366 4.47746C1.43583 3.74489 1.55887 3.34931 1.66143 3.08559C1.78162 2.76028 1.97209 2.46439 2.22414 2.22402C2.46726 1.97495 2.76028 1.78448 3.08559 1.66441C3.34931 1.56185 3.74787 1.4388 4.47746 1.40652C5.26863 1.37138 5.50603 1.36257 7.5073 1.36257C9.51167 1.36257 9.74895 1.37138 10.5373 1.40652C11.2698 1.4388 11.6654 1.56185 11.9291 1.66441C12.2543 1.78448 12.5503 1.97495 12.7906 2.22402C13.0397 2.46726 13.2301 2.76028 13.3503 3.08559C13.4529 3.34931 13.5759 3.74776 13.6082 4.47746C13.6433 5.26863 13.6521 5.50591 13.6521 7.5073C13.6521 9.50869 13.6433 9.74311 13.6082 10.5343Z" fill="#F3F6F8"/>
<path d="M7.50142 3.64819C5.37412 3.64819 3.64813 5.37407 3.64813 7.50149C3.64813 9.6289 5.37412 11.3548 7.50142 11.3548C9.62884 11.3548 11.3547 9.6289 11.3547 7.50149C11.3547 5.37407 9.62884 3.64819 7.50142 3.64819ZM7.50142 10.001C6.12134 10.001 5.00189 8.88168 5.00189 7.50149C5.00189 6.12129 6.12134 5.00195 7.50142 5.00195C8.88162 5.00195 10.001 6.12129 10.001 7.50149C10.001 8.88168 8.88162 10.001 7.50142 10.001Z" fill="#F3F6F8"/>
<path d="M12.4068 3.49582C12.4068 3.99259 12.004 4.39539 11.5071 4.39539C11.0103 4.39539 10.6075 3.99259 10.6075 3.49582C10.6075 2.99893 11.0103 2.59625 11.5071 2.59625C12.004 2.59625 12.4068 2.99893 12.4068 3.49582Z" fill="#F3F6F8"/>
</svg>
