<svg width="25" height="25" viewBox="0 0 25 25" fill="none" xmlns="http://www.w3.org/2000/svg">
<path d="M24.9317 7.35009C24.8731 6.02174 24.6583 5.10851 24.3506 4.31719C24.0332 3.47721 23.5448 2.72519 22.9049 2.10003C22.2798 1.46513 21.5228 0.971796 20.6925 0.659311C19.8966 0.351594 18.9882 0.136784 17.6598 0.0782168C16.3216 0.0146895 15.8967 0 12.5025 0C9.10825 0 8.6834 0.0146895 7.35009 0.0732567C6.02174 0.131824 5.10851 0.346825 4.31738 0.65435C3.47721 0.971796 2.72519 1.46017 2.10003 2.10003C1.46513 2.72519 0.971987 3.48217 0.65931 4.31242C0.351594 5.10851 0.136784 6.01678 0.0782168 7.34513C0.0146895 8.6834 0 9.10825 0 12.5025C0 15.8967 0.0146895 16.3216 0.0732567 17.6549C0.131824 18.9832 0.346825 19.8965 0.654541 20.6878C0.971987 21.5277 1.46513 22.2798 2.10003 22.9049C2.72519 23.5398 3.48217 24.0332 4.31242 24.3456C5.10851 24.6534 6.01678 24.8682 7.34532 24.9267C8.67844 24.9855 9.10348 25 12.4977 25C15.8919 25 16.3168 24.9855 17.6501 24.9267C18.9784 24.8682 19.8917 24.6534 20.6828 24.3456C22.3629 23.6961 23.6913 22.3677 24.3409 20.6878C24.6484 19.8917 24.8634 18.9832 24.922 17.6549C24.9805 16.3216 24.9952 15.8967 24.9952 12.5025C24.9952 9.10825 24.9903 8.6834 24.9317 7.35009ZM22.6804 17.5572C22.6266 18.7781 22.4215 19.4375 22.2506 19.877C21.8305 20.9661 20.9661 21.8305 19.877 22.2506C19.4374 22.4215 18.7734 22.6266 17.5572 22.6802C16.2386 22.739 15.8431 22.7535 12.5074 22.7535C9.17178 22.7535 8.77135 22.739 7.45749 22.6802C6.23655 22.6266 5.57724 22.4215 5.1377 22.2506C4.59571 22.0503 4.10238 21.7328 3.70194 21.3177C3.28682 20.9123 2.96938 20.4239 2.76907 19.882C2.59813 19.4424 2.39305 18.7781 2.33945 17.5622C2.28069 16.2435 2.26619 15.8479 2.26619 12.5122C2.26619 9.17655 2.28069 8.77612 2.33945 7.46246C2.39305 6.24151 2.59813 5.5822 2.76907 5.14266C2.96938 4.60048 3.28682 4.10734 3.7069 3.70671C4.1121 3.29159 4.60048 2.97415 5.14266 2.77403C5.5822 2.60309 6.24647 2.39801 7.46245 2.34422C8.78107 2.28565 9.17674 2.27096 12.5122 2.27096C15.8528 2.27096 16.2483 2.28565 17.5621 2.34422C18.7831 2.39801 19.4424 2.60309 19.8819 2.77403C20.4239 2.97415 20.9173 3.29159 21.3177 3.70671C21.7328 4.11211 22.0503 4.60048 22.2506 5.14266C22.4215 5.5822 22.6266 6.24628 22.6804 7.46246C22.739 8.78108 22.7536 9.17655 22.7536 12.5122C22.7536 15.8479 22.739 16.2386 22.6804 17.5572Z" fill="#C5913F"/>
<path d="M12.5026 6.08142C8.95704 6.08142 6.08038 8.95789 6.08038 12.5036C6.08038 16.0493 8.95704 18.9258 12.5026 18.9258C16.0483 18.9258 18.9247 16.0493 18.9247 12.5036C18.9247 8.95789 16.0483 6.08142 12.5026 6.08142ZM12.5026 16.6695C10.2024 16.6695 8.33665 14.8039 8.33665 12.5036C8.33665 10.2033 10.2024 8.33769 12.5026 8.33769C14.8029 8.33769 16.6685 10.2033 16.6685 12.5036C16.6685 14.8039 14.8029 16.6695 12.5026 16.6695Z" fill="#C5913F"/>
<path d="M20.6787 5.82782C20.6787 6.65593 20.0072 7.32739 19.1789 7.32739C18.3508 7.32739 17.6793 6.65593 17.6793 5.82782C17.6793 4.99951 18.3508 4.32825 19.1789 4.32825C20.0072 4.32825 20.6787 4.99951 20.6787 5.82782Z" fill="#C5913F"/>
</svg>
