<svg width="29" height="29" viewBox="0 0 29 29" fill="none" xmlns="http://www.w3.org/2000/svg">
<path d="M14.5 0C6.48752 0 0 6.48752 0 14.5C0 22.5125 6.48752 29 14.5 29C22.5125 29 29 22.5125 29 14.5C29 6.48752 22.5125 0 14.5 0ZM10.6747 21.6337H7.21123V11.2175H10.6747V21.6337ZM8.94296 9.7959C7.75401 9.7959 7.00446 8.99465 7.00446 7.98663C7.00446 6.95276 7.77986 6.17736 8.96881 6.17736C10.1578 6.17736 10.8815 6.95276 10.9073 7.98663C10.9073 8.99465 10.1319 9.7959 8.94296 9.7959ZM23.1586 21.6337H19.6952V16.0766C19.6952 14.6809 19.2041 13.7246 17.9376 13.7246C16.9813 13.7246 16.4127 14.3708 16.1542 14.9911C16.0766 15.2237 16.0508 15.5339 16.0508 15.844V21.6595H12.5873C12.5873 21.6595 12.639 12.2255 12.5873 11.2433H16.0508V12.7166C16.516 12.0187 17.3431 10.9848 19.1783 10.9848C21.4528 10.9848 23.1586 12.484 23.1586 15.6631V21.6337ZM16.0508 12.7424V12.7166C16.0508 12.7166 16.025 12.7166 16.0508 12.7424Z" fill="#C5913F"/>
</svg>
