<svg width="156" height="19" viewBox="0 0 156 19" fill="none" xmlns="http://www.w3.org/2000/svg">
<path fill-rule="evenodd" clip-rule="evenodd" d="M83.5 2C78.81 2 75 5.80096 75 10.5C75 15.19 78.801 19 83.5 19C88.19 19 92 15.199 92 10.5C92 5.80096 88.19 2 83.5 2ZM81.5224 15.8613C79.9893 14.8634 78.9552 13.0037 78.9552 10.8901C78.9552 7.71505 81.2866 5.12967 84.135 5.12967C85.4685 5.12967 86.6932 5.6921 87.6094 6.6174C86.9381 6.26361 86.1852 6.08218 85.3415 6.06403C83.9445 6.10032 82.7834 6.58111 81.8581 7.51547C80.9328 8.44984 80.452 9.57471 80.4066 10.8991V12.8495C80.452 14.0016 80.8239 15.0085 81.5224 15.8613ZM87.7364 14.8906H85.3597H85.3415C84.7519 14.8906 84.2439 14.682 83.8356 14.2556C83.4184 13.8292 83.2097 13.3394 83.2097 12.7588V10.9989C83.2097 10.4184 83.4184 9.91942 83.8356 9.50213C84.2529 9.07577 84.7519 8.86713 85.3415 8.86713C85.9221 8.86713 86.421 9.07577 86.8292 9.50213C87.2465 9.91942 87.4552 10.4184 87.4552 10.9989V12.7497C87.4552 13.1398 87.5912 13.4755 87.8543 13.7385C87.8725 13.7567 87.8997 13.7839 87.9178 13.802C88.1265 14.047 88.1718 14.5187 87.7364 14.8906Z" fill="#F3F6F8"/>
<path d="M101.776 7.32324C101.099 7.32324 100.482 7.42274 99.9053 7.64163C99.3282 7.86052 98.8307 8.15901 98.3929 8.55699C97.9552 8.95498 97.6169 9.45246 97.3781 10.0295C97.1393 10.6066 97 11.2633 97 11.9797C97 12.4373 97.0597 12.8552 97.1791 13.2333C97.2985 13.6114 97.4776 13.9298 97.6965 14.1686C97.9154 14.4273 98.1741 14.6262 98.4725 14.7456C98.771 14.8849 99.1093 14.9446 99.4675 14.9446C99.9053 14.9446 100.323 14.865 100.721 14.6859L100.084 17.3922H102.174L104.442 7.84062C103.527 7.52224 102.631 7.32324 101.776 7.32324ZM101.159 12.9149C100.94 13.0542 100.761 13.1338 100.582 13.1935C100.403 13.2532 100.244 13.2731 100.064 13.2731C99.766 13.2731 99.5073 13.1736 99.3282 12.9746C99.1491 12.7756 99.0695 12.3975 99.0695 11.8802C99.0695 11.5021 99.1292 11.1439 99.2287 10.8056C99.3282 10.4673 99.4874 10.1688 99.7063 9.91014C99.9252 9.65145 100.164 9.45246 100.462 9.29326C100.761 9.15397 101.099 9.07437 101.477 9.07437C101.577 9.07437 101.676 9.07437 101.776 9.09427C101.875 9.09427 101.975 9.11417 102.074 9.13407L101.159 12.9149Z" fill="#F3F6F8"/>
<path d="M112.203 7.50232H110.133L109.218 11.323C109.178 11.5419 109.119 11.7806 109.079 12.0194C109.039 12.2781 108.999 12.5169 108.979 12.7557C108.78 12.9547 108.581 13.094 108.402 13.1736C108.223 13.2532 108.024 13.293 107.805 13.293C107.547 13.293 107.367 13.2333 107.248 13.1139C107.129 12.9945 107.069 12.8552 107.029 12.6761C107.009 12.497 107.009 12.298 107.029 12.0791C107.069 11.8602 107.109 11.6613 107.149 11.4424L108.084 7.50232H106.034L105.079 11.4623C104.96 11.9 104.92 12.3378 104.94 12.7756C104.96 13.2134 105.039 13.5915 105.218 13.9099C105.378 14.2481 105.636 14.5068 105.975 14.7058C106.313 14.9048 106.751 15.0043 107.308 15.0043C107.706 15.0043 108.064 14.9247 108.402 14.7854C108.721 14.6461 109.019 14.467 109.278 14.268C109.377 14.5267 109.477 14.7456 109.576 14.9446L111.427 14.6859C111.268 14.268 111.168 13.7905 111.109 13.2532C111.049 12.7159 111.089 12.1786 111.228 11.6612L112.203 7.50232Z" fill="#F3F6F8"/>
<path d="M120.103 7.88042C119.824 7.74112 119.546 7.64163 119.247 7.58193C118.949 7.50233 118.67 7.46253 118.392 7.42274C118.113 7.38294 117.874 7.36304 117.675 7.36304C117.456 7.36304 117.317 7.34314 117.238 7.34314C116.601 7.34314 116.004 7.46254 115.447 7.70133C114.889 7.94012 114.412 8.2784 114.014 8.69629C113.616 9.11417 113.297 9.61165 113.059 10.1887C112.84 10.7658 112.72 11.3628 112.72 11.9995C112.72 12.4174 112.76 12.8154 112.86 13.1736C112.959 13.5318 113.098 13.8701 113.317 14.1288C113.536 14.4074 113.795 14.6262 114.133 14.7854C114.472 14.9446 114.87 15.0242 115.327 15.0242C115.725 15.0242 116.063 14.9446 116.382 14.8053C116.7 14.666 116.979 14.4869 117.257 14.2681C117.297 14.4074 117.357 14.5069 117.397 14.6262C117.437 14.7257 117.496 14.8451 117.556 14.9446L119.407 14.6859C119.247 14.2681 119.148 13.7905 119.088 13.2532C119.028 12.7159 119.068 12.1786 119.208 11.6613L120.103 7.88042ZM117.198 11.323C117.158 11.5419 117.098 11.7807 117.058 12.0195C117.019 12.2781 116.979 12.5169 116.959 12.7557C116.76 12.9547 116.581 13.094 116.402 13.1736C116.223 13.2532 116.044 13.293 115.825 13.293C115.427 13.293 115.148 13.1537 115.009 12.895C114.85 12.6363 114.79 12.2781 114.79 11.8404C114.79 11.4822 114.85 11.124 114.969 10.7857C115.088 10.4474 115.248 10.1489 115.447 9.89024C115.646 9.63155 115.884 9.43255 116.163 9.27336C116.442 9.11417 116.74 9.03457 117.058 9.03457C117.198 9.03457 117.317 9.03457 117.417 9.05447C117.516 9.07437 117.616 9.07437 117.755 9.09427L117.198 11.323Z" fill="#F3F6F8"/>
<path d="M122.909 12.8949C122.849 12.7954 122.829 12.6561 122.829 12.5169C122.829 12.3776 122.849 12.2184 122.889 12.0592L124.839 4L122.67 4.33829L120.899 11.7607C120.799 12.1985 120.74 12.6164 120.74 12.9944C120.74 13.3725 120.819 13.7307 120.979 14.0292C121.138 14.3277 121.416 14.5665 121.794 14.7257C122.172 14.9048 122.69 14.9844 123.347 14.9844L123.764 13.273C123.526 13.2531 123.327 13.2133 123.207 13.1536C123.048 13.074 122.949 12.9944 122.909 12.8949Z" fill="#F3F6F8"/>
<path d="M128.699 5.19394C128.699 4.83575 128.58 4.57707 128.341 4.39797C128.102 4.21888 127.844 4.13928 127.565 4.13928C127.366 4.13928 127.187 4.17908 127.008 4.25868C126.829 4.33828 126.69 4.43777 126.55 4.55717C126.411 4.67656 126.312 4.83575 126.232 4.99495C126.152 5.17404 126.113 5.35313 126.113 5.55213C126.113 5.91031 126.232 6.169 126.471 6.34809C126.709 6.52719 126.968 6.60678 127.247 6.60678C127.446 6.60678 127.625 6.56698 127.804 6.48739C127.983 6.40779 128.122 6.3083 128.262 6.1889C128.401 6.0695 128.5 5.91031 128.58 5.75112C128.66 5.57203 128.699 5.39293 128.699 5.19394Z" fill="#F3F6F8"/>
<path d="M130.988 11.7806L131.605 9.21359H133.893L134.311 7.50227H131.983L132.52 5.33325L130.351 5.67154L128.978 11.4622C128.859 11.9398 128.799 12.3975 128.779 12.8153C128.759 13.2531 128.819 13.6312 128.978 13.9496C129.117 14.2879 129.376 14.5466 129.734 14.7257C130.092 14.9247 130.59 15.0043 131.227 15.0043C131.664 15.0043 132.062 14.9645 132.381 14.8849C132.699 14.8053 133.018 14.7257 133.296 14.6262L133.137 13.0342C132.918 13.1138 132.719 13.1735 132.5 13.2133C132.281 13.2531 132.082 13.273 131.843 13.273C131.585 13.273 131.386 13.2332 131.227 13.1536C131.087 13.074 130.968 12.9745 130.908 12.8352C130.849 12.696 130.829 12.5368 130.829 12.3577C130.888 12.1985 130.928 11.9796 130.988 11.7806Z" fill="#F3F6F8"/>
<path d="M141.037 11.6812L141.952 7.88042C141.674 7.74112 141.395 7.64163 141.097 7.58193C140.798 7.50233 140.52 7.46253 140.241 7.42274C139.962 7.38294 139.724 7.36304 139.525 7.36304C139.306 7.36304 139.166 7.34314 139.087 7.34314C138.45 7.34314 137.853 7.46254 137.296 7.70133C136.739 7.94012 136.261 8.2784 135.863 8.69629C135.465 9.11417 135.147 9.61165 134.908 10.1887C134.689 10.7658 134.57 11.3628 134.57 11.9995C134.57 12.4174 134.609 12.8154 134.709 13.1736C134.808 13.5318 134.948 13.8701 135.167 14.1288C135.386 14.4074 135.644 14.6262 135.982 14.7854C136.321 14.9446 136.719 15.0242 137.176 15.0242C137.574 15.0242 137.913 14.9446 138.231 14.8053C138.549 14.666 138.828 14.4869 139.107 14.2681C139.146 14.4074 139.206 14.5069 139.246 14.6262C139.286 14.7257 139.345 14.8451 139.405 14.9446L141.256 14.6859C141.097 14.2681 140.997 13.7905 140.937 13.2532C140.858 12.7358 140.898 12.1985 141.037 11.6812ZM139.027 11.323C138.987 11.5419 138.928 11.7807 138.888 12.0195C138.848 12.2781 138.808 12.5169 138.788 12.7557C138.589 12.9547 138.41 13.094 138.231 13.1736C138.052 13.2532 137.873 13.293 137.654 13.293C137.256 13.293 136.977 13.1537 136.838 12.895C136.679 12.6363 136.619 12.2781 136.619 11.8404C136.619 11.4822 136.679 11.124 136.798 10.7857C136.918 10.4474 137.077 10.1489 137.276 9.89024C137.475 9.63155 137.714 9.43255 137.992 9.27336C138.271 9.11417 138.569 9.03457 138.888 9.03457C139.027 9.03457 139.146 9.03457 139.246 9.05447C139.345 9.07437 139.445 9.07437 139.564 9.09427L139.027 11.323Z" fill="#F3F6F8"/>
<path d="M148.579 7.60183C148.36 7.50233 148.121 7.44264 147.823 7.40284C147.544 7.36304 147.285 7.34314 147.046 7.34314C146.43 7.34314 145.853 7.40284 145.355 7.52223C144.858 7.64163 144.4 7.76102 144.002 7.90032L142.33 14.865H144.42L145.773 9.21366C145.872 9.19376 146.012 9.15397 146.171 9.13407C146.33 9.11417 146.469 9.09427 146.609 9.09427C146.967 9.09427 147.226 9.11417 147.405 9.15397C147.584 9.19377 147.763 9.23356 147.962 9.29326L148.579 7.60183Z" fill="#F3F6F8"/>
<path d="M155.066 8.4973C154.946 8.23861 154.787 8.01972 154.568 7.84062C154.35 7.66153 154.111 7.52224 153.832 7.44264C153.554 7.34314 153.255 7.30334 152.917 7.30334C152.26 7.30334 151.643 7.44264 151.106 7.70133C150.569 7.96002 150.091 8.3182 149.713 8.75599C149.335 9.19377 149.036 9.69125 148.818 10.2484C148.599 10.8056 148.499 11.3827 148.499 11.9797C148.499 12.3975 148.559 12.7955 148.658 13.1736C148.778 13.5517 148.957 13.8701 149.196 14.1487C149.434 14.4273 149.773 14.6461 150.151 14.8053C150.549 14.9645 151.026 15.0441 151.603 15.0441C152.081 15.0441 152.519 15.0043 152.917 14.9247C153.315 14.8451 153.653 14.7456 153.912 14.6461L153.753 13.0144C153.474 13.1139 153.195 13.1935 152.877 13.2532C152.578 13.3129 152.26 13.3328 151.962 13.3328C151.484 13.3328 151.146 13.2532 150.927 13.094C150.708 12.9348 150.569 12.6562 150.509 12.2582C151.186 12.2582 151.802 12.1985 152.36 12.099C152.937 11.9996 153.414 11.8404 153.832 11.6016C154.25 11.3827 154.568 11.0842 154.807 10.7061C155.046 10.3479 155.165 9.89024 155.165 9.37286C155.245 9.05447 155.185 8.75599 155.066 8.4973ZM153.255 10.0096C153.195 10.1489 153.056 10.2683 152.857 10.3678C152.658 10.4872 152.379 10.5668 152.041 10.6464C151.683 10.726 151.225 10.7658 150.648 10.7857C150.768 10.2285 150.987 9.77084 151.345 9.43256C151.703 9.09427 152.121 8.91518 152.598 8.91518C153.096 8.91518 153.355 9.13407 153.355 9.59175C153.355 9.75095 153.315 9.89024 153.255 10.0096Z" fill="#F3F6F8"/>
<path d="M127.983 7.52222H125.914L124.899 11.7607C124.799 12.1985 124.739 12.6164 124.739 12.9945C124.739 13.3726 124.819 13.7308 124.978 14.0293C125.137 14.3277 125.416 14.5665 125.794 14.7257C126.172 14.9048 126.69 14.9844 127.346 14.9844L127.764 13.2731C127.525 13.2532 127.326 13.2134 127.207 13.1537C127.068 13.094 126.968 12.9945 126.928 12.895C126.869 12.7955 126.849 12.6562 126.849 12.5169C126.849 12.3776 126.869 12.2184 126.908 12.0592L127.983 7.52222Z" fill="#F3F6F8"/>
<path d="M7.70312 9.6875H2.39844V15H1.4375V3.625H8.48438V4.44531H2.39844V8.86719H7.70312V9.6875ZM13.3203 15.1562C12.6016 15.1562 11.9505 14.9792 11.3672 14.625C10.7891 14.2708 10.3385 13.7786 10.0156 13.1484C9.69271 12.513 9.53125 11.8021 9.53125 11.0156V10.6797C9.53125 9.86719 9.6875 9.13542 10 8.48438C10.3177 7.83333 10.7578 7.32292 11.3203 6.95312C11.8828 6.57812 12.4922 6.39062 13.1484 6.39062C14.1745 6.39062 14.987 6.74219 15.5859 7.44531C16.1901 8.14323 16.4922 9.09896 16.4922 10.3125V10.8359H10.4609V11.0156C10.4609 11.974 10.7344 12.7734 11.2812 13.4141C11.8333 14.0495 12.526 14.3672 13.3594 14.3672C13.8594 14.3672 14.2995 14.276 14.6797 14.0938C15.0651 13.9115 15.4141 13.6198 15.7266 13.2188L16.3125 13.6641C15.625 14.6589 14.6276 15.1562 13.3203 15.1562ZM13.1484 7.1875C12.4453 7.1875 11.8516 7.44531 11.3672 7.96094C10.888 8.47656 10.5964 9.16927 10.4922 10.0391H15.5625V9.9375C15.5365 9.125 15.3047 8.46354 14.8672 7.95312C14.4297 7.44271 13.8568 7.1875 13.1484 7.1875ZM19.3594 15H18.4219V6.54688H19.3594V15ZM18.2578 4.10156C18.2578 3.92448 18.3151 3.77604 18.4297 3.65625C18.5443 3.53125 18.7005 3.46875 18.8984 3.46875C19.0964 3.46875 19.2526 3.53125 19.3672 3.65625C19.487 3.77604 19.5469 3.92448 19.5469 4.10156C19.5469 4.27865 19.487 4.42708 19.3672 4.54688C19.2526 4.66667 19.0964 4.72656 18.8984 4.72656C18.7005 4.72656 18.5443 4.66667 18.4297 4.54688C18.3151 4.42708 18.2578 4.27865 18.2578 4.10156ZM23.3594 4.38281V6.54688H25.1094V7.3125H23.3594V12.9453C23.3594 13.4141 23.4427 13.763 23.6094 13.9922C23.7812 14.2214 24.0651 14.3359 24.4609 14.3359C24.6172 14.3359 24.8698 14.3099 25.2188 14.2578L25.2578 15.0234C25.013 15.112 24.6797 15.1562 24.2578 15.1562C23.6172 15.1562 23.151 14.9714 22.8594 14.6016C22.5677 14.2266 22.4219 13.6771 22.4219 12.9531V7.3125H20.8672V6.54688H22.4219V4.38281H23.3594ZM26.375 10.6484C26.375 9.83594 26.5312 9.10417 26.8438 8.45312C27.1615 7.80208 27.6068 7.29688 28.1797 6.9375C28.7578 6.57292 29.4115 6.39062 30.1406 6.39062C31.2656 6.39062 32.1771 6.78646 32.875 7.57812C33.5729 8.36458 33.9219 9.40885 33.9219 10.7109V10.9062C33.9219 11.724 33.763 12.4609 33.4453 13.1172C33.1328 13.7682 32.6901 14.2708 32.1172 14.625C31.5443 14.9792 30.8906 15.1562 30.1562 15.1562C29.0365 15.1562 28.125 14.763 27.4219 13.9766C26.724 13.1849 26.375 12.138 26.375 10.8359V10.6484ZM27.3125 10.9062C27.3125 11.9167 27.5729 12.7474 28.0938 13.3984C28.6198 14.0443 29.3073 14.3672 30.1562 14.3672C31 14.3672 31.6823 14.0443 32.2031 13.3984C32.7292 12.7474 32.9922 11.8906 32.9922 10.8281V10.6484C32.9922 10.0026 32.8724 9.41146 32.6328 8.875C32.3932 8.33854 32.0573 7.92448 31.625 7.63281C31.1927 7.33594 30.6979 7.1875 30.1406 7.1875C29.3073 7.1875 28.6276 7.51562 28.1016 8.17188C27.5755 8.82292 27.3125 9.67708 27.3125 10.7344V10.9062ZM42.875 14.3672C43.526 14.3672 44.0703 14.1849 44.5078 13.8203C44.9505 13.4505 45.1901 12.974 45.2266 12.3906H46.125C46.099 12.9062 45.9375 13.3776 45.6406 13.8047C45.3438 14.2266 44.9479 14.5573 44.4531 14.7969C43.9635 15.0365 43.4375 15.1562 42.875 15.1562C41.7656 15.1562 40.8854 14.7708 40.2344 14C39.5885 13.2292 39.2656 12.1927 39.2656 10.8906V10.6094C39.2656 9.77604 39.4115 9.03906 39.7031 8.39844C39.9948 7.75781 40.4115 7.26302 40.9531 6.91406C41.5 6.5651 42.138 6.39062 42.8672 6.39062C43.7943 6.39062 44.5573 6.66667 45.1562 7.21875C45.7604 7.77083 46.0833 8.4974 46.125 9.39844H45.2266C45.1849 8.73698 44.9453 8.20312 44.5078 7.79688C44.0755 7.39062 43.5286 7.1875 42.8672 7.1875C42.0234 7.1875 41.3672 7.49219 40.8984 8.10156C40.4349 8.71094 40.2031 9.5651 40.2031 10.6641V10.9375C40.2031 12.0156 40.4349 12.8568 40.8984 13.4609C41.3672 14.0651 42.026 14.3672 42.875 14.3672ZM47.4844 10.6484C47.4844 9.83594 47.6406 9.10417 47.9531 8.45312C48.2708 7.80208 48.7161 7.29688 49.2891 6.9375C49.8672 6.57292 50.5208 6.39062 51.25 6.39062C52.375 6.39062 53.2865 6.78646 53.9844 7.57812C54.6823 8.36458 55.0312 9.40885 55.0312 10.7109V10.9062C55.0312 11.724 54.8724 12.4609 54.5547 13.1172C54.2422 13.7682 53.7995 14.2708 53.2266 14.625C52.6536 14.9792 52 15.1562 51.2656 15.1562C50.1458 15.1562 49.2344 14.763 48.5312 13.9766C47.8333 13.1849 47.4844 12.138 47.4844 10.8359V10.6484ZM48.4219 10.9062C48.4219 11.9167 48.6823 12.7474 49.2031 13.3984C49.7292 14.0443 50.4167 14.3672 51.2656 14.3672C52.1094 14.3672 52.7917 14.0443 53.3125 13.3984C53.8385 12.7474 54.1016 11.8906 54.1016 10.8281V10.6484C54.1016 10.0026 53.9818 9.41146 53.7422 8.875C53.5026 8.33854 53.1667 7.92448 52.7344 7.63281C52.3021 7.33594 51.8073 7.1875 51.25 7.1875C50.4167 7.1875 49.737 7.51562 49.2109 8.17188C48.6849 8.82292 48.4219 9.67708 48.4219 10.7344V10.9062ZM57.8203 6.54688L57.8516 7.92188C58.1641 7.41146 58.5547 7.02865 59.0234 6.77344C59.4922 6.51823 60.013 6.39062 60.5859 6.39062C61.9193 6.39062 62.7656 6.9375 63.125 8.03125C63.4271 7.50521 63.8307 7.10156 64.3359 6.82031C64.8411 6.53385 65.3984 6.39062 66.0078 6.39062C67.8203 6.39062 68.7448 7.38021 68.7812 9.35938V15H67.8438V9.42969C67.8385 8.67448 67.6745 8.11458 67.3516 7.75C67.0339 7.38542 66.513 7.20312 65.7891 7.20312C65.1172 7.21354 64.5495 7.43229 64.0859 7.85938C63.6224 8.28125 63.3646 8.79688 63.3125 9.40625V15H62.375V9.35938C62.3698 8.63542 62.1979 8.09635 61.8594 7.74219C61.526 7.38281 61.0104 7.20312 60.3125 7.20312C59.724 7.20312 59.2188 7.3724 58.7969 7.71094C58.375 8.04427 58.0625 8.54167 57.8594 9.20312V15H56.9219V6.54688H57.8203Z" fill="#C4C4C4"/>
</svg>
