<svg width="20" height="20" viewBox="0 0 20 20" fill="none" xmlns="http://www.w3.org/2000/svg">
<path d="M7.26128 13.5226C10.7193 13.5226 13.5226 10.7193 13.5226 7.26128C13.5226 3.80327 10.7193 1 7.26128 1C3.80327 1 1 3.80327 1 7.26128C1 10.7193 3.80327 13.5226 7.26128 13.5226Z" stroke="#F3F6F8" stroke-miterlimit="10"/>
<path d="M14.0518 12.6971L12.6977 14.0512C12.4407 14.3082 12.4407 14.725 12.6977 14.982L16.6579 18.9422C16.9149 19.1992 17.3316 19.1992 17.5886 18.9422L18.9428 17.588C19.1998 17.331 19.1998 16.9143 18.9428 16.6573L14.9826 12.6971C14.7256 12.4401 14.3088 12.4401 14.0518 12.6971Z" stroke="#F3F6F8" stroke-miterlimit="10"/>
<path d="M13.3728 13.3732L11.6901 11.6904" stroke="#F3F6F8" stroke-miterlimit="10"/>
</svg>
