<svg width="13" height="13" viewBox="0 0 13 13" fill="none" xmlns="http://www.w3.org/2000/svg">
<path d="M5.63397 1.5C6.01887 0.833333 6.98113 0.833333 7.36603 1.5L11.2631 8.25C11.648 8.91667 11.1669 9.75 10.3971 9.75H2.60289C1.83309 9.75 1.35196 8.91667 1.73686 8.25L5.63397 1.5Z" fill="#F17676"/>
<path d="M6.96236 6.97855H6.23272L6.11779 4.31921H7.07729L6.96236 6.97855ZM6.09106 7.80708C6.09106 7.67523 6.13828 7.56743 6.23272 7.48369C6.32893 7.39816 6.44832 7.3554 6.59086 7.3554C6.7334 7.3554 6.85189 7.39816 6.94633 7.48369C7.04254 7.56743 7.09065 7.67523 7.09065 7.80708C7.09065 7.93894 7.04254 8.04763 6.94633 8.13315C6.85189 8.2169 6.7334 8.25877 6.59086 8.25877C6.44832 8.25877 6.32893 8.2169 6.23272 8.13315C6.13828 8.04763 6.09106 7.93894 6.09106 7.80708Z" fill="#F3F6F8"/>
</svg>
